<svg id="Layer_1" data-name="Layer 1" xmlns="http://www.w3.org/2000/svg" viewBox="0 0 1364.53 486.24"><defs><style>.cls-1{fill:#ca4540;}.cls-2{fill:#262624;}.cls-3{fill:#fff;}</style></defs><path class="cls-1" d="M18.69,486.05C7,484,0,475.66,0,463.29Q-.06,377.6,0,291.9,0,157.25.05,22.58C.05,11.37,5.14,4,14.91,1A16.85,16.85,0,0,1,19.79.24Q165.94.18,312.09.2c.66,0,1.33.13,2,.19,0,40,.62,80-.14,120-.32,16.81,13.61,32.62,32.35,32.26,38.14-.75,76.31-.21,114.47-.2,2.15,0,4.33-.22,6.4.6.1,20.46.27,40.92.28,61.38q0,124.82.06,249.63c0,13.21-10.17,23.34-20,22.11-2.16-1.32-4.53-.57-6.78-.58q-207.07-.07-414.14,0C23.94,485.53,21.25,485,18.69,486.05ZM234.24,208.24q-83.2,0-166.41,0c-2.62,0-5.29-.36-7.64,1.5-3.6,2.84-5.39,6.29-4.1,10.88,1.37,4.86,5.36,7.44,11.61,7.44H400a16.94,16.94,0,0,0,5.91-.73c4.3-1.55,7.29-5.8,6.92-9.93a10.44,10.44,0,0,0-8.71-9,33.53,33.53,0,0,0-4.49-.14Q316.95,208.22,234.24,208.24Zm-24.39,128H101.94c-12,0-24-.05-36,0-5.83,0-10,4-10.31,9.37-.27,5.11,3.92,9.69,9.53,10.33a35.5,35.5,0,0,0,4,.1l281.78,0c2.69,0,5.33-.14,7.74-1.5,3.86-2.19,5.9-5.51,5.19-9.92a9.41,9.41,0,0,0-8.16-8.29,25.81,25.81,0,0,0-4.49-.15Zm-19.7-64v0h-45q-39.24,0-78.47.06c-6.57,0-10.92,3.91-11.08,9.65s4.29,9.79,10.79,10.07c1.5.06,3,0,4.5,0h239.4c4.06,0,8.15-.19,10.81-3.87,2.27-3.14,3.12-6.66,1.28-10.32-2.11-4.18-5.71-5.63-10.3-5.62Q251.12,272.28,190.15,272.22Zm-7.57,147.1H225q37.22,0,74.43,0c4.23,0,7.44-1.49,9.57-5.14s.61-6.82-1.15-10.19c-2.32-4.44-6.24-4.48-10.25-4.48q-114.88,0-229.77,0c-7.88,0-12.15,3.65-12,10.12.11,6.3,4.28,9.7,11.88,9.7ZM56.2,113.55c0,12.67.12,25.33-.06,38-.06,4.34,1.52,6.14,5.87,5.75a42.65,42.65,0,0,1,8,0c4.31.43,5.55-1.52,5.4-5.54-.21-5.82.28-11.68-.09-17.48-.3-4.63.74-6.83,5.89-6.07a42.18,42.18,0,0,0,9-.1c17.35-1.22,28.2-11.77,28.78-27.9s-9.82-28-26.87-29.57c-10.08-1-20.31-.3-30.46-.59-4.12-.12-5.57,1.39-5.5,5.54C56.33,88.23,56.2,100.89,56.2,113.55Zm141.89-1.5a61.64,61.64,0,0,0,1.09,13.42c3.31,17.31,14.91,29.67,30.47,32.41,16.31,2.87,32.86-6.36,37.72-21,2-6.1,1-7.57-5.2-7.6-2.5,0-5,.16-7.49-.06-3.27-.31-5.29.94-6.71,3.9-2.91,6.08-7.93,8.79-14.61,8.27s-10.62-4.5-12.94-10.27c-2.85-7.07-3.24-14.57-2.84-22.08.31-5.67,1.11-11.26,4.14-16.28,6-9.93,20-10.35,25.4-.13,2.7,5.11,5.79,6.62,10.93,5.94a25.93,25.93,0,0,1,4.49.06c5.37.24,6.27-.89,4.8-6C261,70.46,232.51,61.33,213.65,75.44,201.42,84.59,198.07,97.64,198.09,112.05Zm-36.33-3c-.58-.11-.85-.09-.89-.18-4-8.78-7.93-17.58-11.94-26.35-6.89-15.09-3.5-12.11-19.21-12.37-6.72-.11-7.19.71-4.26,6.71,8.32,17,16.69,34.08,24.94,51.17,3.25,6.73-1,13.7-8.49,14.07-8.88.45-8.88.45-8.83,9.57a14.82,14.82,0,0,1,0,2c-.37,3.17,1.05,4.45,4.21,4.72,13.3,1.11,23.67-3.47,29.68-15.7,4.76-9.7,8.92-19.7,13.23-29.62,5.38-12.37,10.66-24.77,15.94-37.18,2.17-5.1,1.46-6.07-4.18-6a45.3,45.3,0,0,1-7,0c-5.14-.72-7.81,1.31-9.65,6.22C171.11,87.28,166.29,98.18,161.76,109.09Z"/><path class="cls-2" d="M467.16,153c-2.07-.82-4.25-.6-6.4-.6-38.16,0-76.33-.55-114.47.2-18.74.36-32.67-15.45-32.35-32.26.76-40,.18-80,.14-120,10-1.61,17.47,1.82,24.73,9.18Q398.27,69.77,458.67,129C465.81,136,468.77,143.44,467.16,153Zm-35-20.8-98.54-99c.05,0-.2.06-.21.14-.05,29.81-.15,59.61-.07,89.41a9.47,9.47,0,0,0,9.72,9.41C372.87,132.27,402.64,132.22,432.19,132.22Z"/><path class="cls-2" d="M18.69,486.05c2.56-1.09,5.25-.52,7.86-.52q207.08,0,414.14,0c2.25,0,4.62-.74,6.78.58H30.68C26.68,486.15,22.68,486.08,18.69,486.05Z"/><path class="cls-3" d="M234.24,208.24q82.7,0,165.4,0a33.53,33.53,0,0,1,4.49.14,10.44,10.44,0,0,1,8.71,9c.37,4.13-2.62,8.38-6.92,9.93a16.94,16.94,0,0,1-5.91.73H67.7c-6.25,0-10.24-2.58-11.61-7.44-1.29-4.59.5-8,4.1-10.88,2.35-1.86,5-1.5,7.64-1.5Q151,208.21,234.24,208.24Z"/><path class="cls-3" d="M209.85,336.19H351.24a25.81,25.81,0,0,1,4.49.15,9.41,9.41,0,0,1,8.16,8.29c.71,4.41-1.33,7.73-5.19,9.92-2.41,1.36-5.05,1.5-7.74,1.5L69.18,356a35.5,35.5,0,0,1-4-.1c-5.61-.64-9.8-5.22-9.53-10.33.28-5.38,4.48-9.33,10.31-9.37,12-.08,24,0,36,0Z"/><path class="cls-3" d="M190.15,272.22q61,0,122,0c4.59,0,8.19,1.44,10.3,5.62,1.84,3.66,1,7.18-1.28,10.32-2.66,3.68-6.75,3.87-10.81,3.87H70.91c-1.5,0-3,0-4.5,0-6.5-.28-10.94-4.43-10.79-10.07s4.51-9.64,11.08-9.65q39.24-.09,78.47-.06h45Z"/><path class="cls-3" d="M182.58,419.32H67.69c-7.6,0-11.77-3.4-11.88-9.7-.1-6.47,4.17-10.12,12-10.12q114.89,0,229.77,0c4,0,7.93,0,10.25,4.48,1.76,3.37,3.29,6.52,1.15,10.19s-5.34,5.15-9.57,5.14q-37.21-.09-74.43,0Z"/><path class="cls-3" d="M56.2,113.55c0-12.66.13-25.32-.07-38-.07-4.15,1.38-5.66,5.5-5.54,10.15.29,20.38-.36,30.46.59,17,1.6,27.46,13.56,26.87,29.57s-11.43,26.68-28.78,27.9a42.18,42.18,0,0,1-9,.1c-5.15-.76-6.19,1.44-5.89,6.07.37,5.8-.12,11.66.09,17.48.15,4-1.09,6-5.4,5.54a42.65,42.65,0,0,0-8,0c-4.35.39-5.93-1.41-5.87-5.75C56.32,138.88,56.2,126.22,56.2,113.55Zm19.19-15c0,13.59,0,13.59,12.83,12.75,7.37-.49,11.16-4.28,11.64-11.64.52-8.06-4.5-12.83-13.91-13.21-10.55-.43-10.55-.43-10.56,10.11C75.38,97.27,75.39,97.93,75.39,98.6Z"/><path class="cls-3" d="M198.09,112.05c0-14.41,3.33-27.46,15.56-36.61,18.86-14.11,47.35-5,53.69,17.11,1.47,5.15.57,6.28-4.8,6a25.93,25.93,0,0,0-4.49-.06c-5.14.68-8.23-.83-10.93-5.94-5.4-10.22-19.4-9.8-25.4.13-3,5-3.83,10.61-4.14,16.28-.4,7.51,0,15,2.84,22.08,2.32,5.77,6.39,9.75,12.94,10.27s11.7-2.19,14.61-8.27c1.42-3,3.44-4.21,6.71-3.9,2.48.22,5,0,7.49.06,6.22,0,7.23,1.5,5.2,7.6-4.86,14.68-21.41,23.91-37.72,21-15.56-2.74-27.16-15.1-30.47-32.41A61.64,61.64,0,0,1,198.09,112.05Z"/><path class="cls-3" d="M161.76,109.09c4.53-10.91,9.35-21.81,13.55-32.94,1.84-4.91,4.51-6.94,9.65-6.22a45.3,45.3,0,0,0,7,0c5.64-.08,6.35.89,4.18,6-5.28,12.41-10.56,24.81-15.94,37.18C175.88,123,171.72,133,167,142.73c-6,12.23-16.38,16.81-29.68,15.7-3.16-.27-4.58-1.55-4.21-4.72a14.82,14.82,0,0,0,0-2c-.05-9.12-.05-9.12,8.83-9.57,7.45-.37,11.74-7.34,8.49-14.07C142.15,111,133.78,94,125.46,76.9c-2.93-6-2.46-6.82,4.26-6.71,15.71.26,12.32-2.72,19.21,12.37,4,8.77,7.95,17.57,11.94,26.35C160.91,109,161.18,109,161.76,109.09Z"/><path class="cls-1" d="M432.19,132.22c-29.55,0-59.32.05-89.1,0a9.47,9.47,0,0,1-9.72-9.41c-.08-29.8,0-59.6.07-89.41,0-.08.26-.17.21-.14Z"/><path class="cls-1" d="M75.39,98.6c0-.67,0-1.33,0-2,0-10.54,0-10.54,10.56-10.11,9.41.38,14.43,5.15,13.91,13.21-.48,7.36-4.27,11.15-11.64,11.64C75.4,112.19,75.4,112.19,75.39,98.6Z"/><path class="cls-3" d="M486.56,88.29q0-40.05,39.47-40.06h.39V75.36h-.48q-11.87,0-11.87,12.93V242H486.56Z"/><path class="cls-3" d="M620.26,205q0,40.07-39.58,40.16T541.2,205V51.24h27.52V205q0,12.93,12,12.93T592.74,205V51.24h27.52Z"/><path class="cls-3" d="M641.65,88.29q0-40.05,39.48-40.06t39.58,40.06V114H693.19V88.29q0-12.83-12-12.93H681q-11.87,0-11.86,12.93V105.6q0,12.74,25.77,31.21t25.77,44.05V205q0,40.16-39.48,40.16T641.65,205V179.31h27.52V205q0,12.93,12.06,12.93t12-12.93V183.2q0-13.81-25.77-32.29t-25.77-44.73Z"/><path class="cls-3" d="M742.1,88.29q0-40.05,39.48-40.06t39.57,40.06V114H793.64V88.29q0-12.83-12-12.93h-.19q-11.87,0-11.86,12.93V105.6q0,12.74,25.77,31.21t25.76,44.05V205q0,40.16-39.48,40.16T742.1,205V179.31h27.52V205q0,12.93,12,12.93t12-12.93V183.2q0-13.81-25.77-32.29T742.1,106.18Z"/><path class="cls-3" d="M841.48,0h29.75V29.76H841.48Zm1.07,51.24h27.52V242H842.55Z"/><path class="cls-3" d="M943,88.29q0-12.93-11.86-12.93h-.19q-12,.11-12,12.93V114H891.46V88.29q0-40.05,39.57-40.06t39.48,40.06V205q0,40.16-39.48,40.16T891.46,205V173q0-40.06,30.24-40.16,13.13,0,21.29,6.12ZM919,205q0,12.93,12,12.93T943,205V172.89q-.09-12.84-12-12.84-12.06,0-12,12.94Z"/><path class="cls-3" d="M1019.42,242H991.9V88.29q0-40.05,39.48-40.06T1071,88.29V242h-27.52V88.29q0-12.83-12-12.93h-.19q-11.87,0-11.87,12.93Z"/><path class="cls-3" d="M561.09,448.38q0,37.77-37.31,37.86t-37.22-37.86v-110q0-37.77,37.22-37.77t37.31,37.77v24.2h-26v-24.2q0-12.11-11.27-12.19h-.19q-11.17,0-11.18,12.19v110q0,12.19,11.28,12.19t11.36-12.19v-24.2h26Z"/><path class="cls-3" d="M607.2,483.31H581.26V245.14H607.2v61.24q7.69-5.78,20.08-5.78,28.5.09,28.51,37.86V483.31H629.84V338.46q0-12.18-11.36-12.19-11.19,0-11.28,12.1Z"/><path class="cls-3" d="M701.9,406.21v42.17q0,12.19,11.28,12.19t11.36-12.19v-24.2h26v24.2q0,37.77-37.31,37.86T676,448.38v-110q0-37.77,37.22-37.77t37.31,37.77v67.84Zm0-25.67h22.64V338.37q0-12.11-11.27-12.19h-.18q-11.19,0-11.19,12.19Z"/><path class="cls-3" d="M819.24,338.37q0-12.19-11.18-12.19h-.18q-11.28.09-11.28,12.19v24.2H770.66v-24.2q0-37.77,37.31-37.77t37.22,37.77v110q0,37.86-37.22,37.86t-37.31-37.86V418.22q0-37.77,28.51-37.86,12.38,0,20.07,5.77Zm-22.64,110q0,12.19,11.37,12.19t11.27-12.19V418.13Q819.15,406,808,406q-11.37,0-11.37,12.19Z"/><path class="cls-3" d="M897.35,303.44h20.08V329H897.35V483.31H871.41V329H852.8V303.44h18.61v-58.3h25.94Z"/><path class="cls-3" d="M929.34,338.37q0-37.77,37.22-37.77t37.32,37.77v24.2h-26v-24.2q0-12.11-11.27-12.19h-.19q-11.18,0-11.18,12.19v16.32q0,12,24.29,29.43t24.3,41.53v22.73q0,37.86-37.22,37.86t-37.32-37.86v-24.2h25.95v24.2q0,12.19,11.37,12.19t11.27-12.19V427.85q0-13-24.29-30.44t-24.3-42.17Z"/><path class="cls-3" d="M1050,483.31h-25.94V245.14H1050v61.24q7.69-5.78,20.08-5.78,28.5.09,28.51,37.86V483.31h-25.95V338.46q0-12.18-11.36-12.19-11.19,0-11.28,12.1Z"/><path class="cls-3" d="M1144.69,406.21v42.17q0,12.19,11.27,12.19t11.37-12.19v-24.2h26v24.2q0,37.77-37.32,37.86t-37.22-37.86v-110q0-37.77,37.22-37.77t37.32,37.77v67.84Zm0-25.67h22.64V338.37q0-12.11-11.27-12.19h-.19q-11.17,0-11.18,12.19Z"/><path class="cls-3" d="M1239.39,406.21v42.17q0,12.19,11.27,12.19T1262,448.38v-24.2h26v24.2q0,37.77-37.32,37.86t-37.22-37.86v-110q0-37.77,37.22-37.77T1288,338.37v67.84Zm0-25.67H1262V338.37q0-12.11-11.27-12.19h-.19q-11.17,0-11.18,12.19Z"/><path class="cls-3" d="M1344.45,303.44h20.08V329h-20.08V483.31h-26V329h-18.61V303.44h18.61v-58.3h26Z"/></svg>